<svg xmlns="http://www.w3.org/2000/svg" xmlns:xlink="http://www.w3.org/1999/xlink" width="500" zoomAndPan="magnify" viewBox="0 0 375 374.999991" height="500" preserveAspectRatio="xMidYMid meet" version="1.0"><defs><g/><clipPath id="7cec648ab9"><path d="M 40.734375 152 L 61 152 L 61 213 L 40.734375 213 Z M 40.734375 152 " clip-rule="nonzero"/></clipPath><clipPath id="a6269cc96b"><path d="M 67 138.703125 L 102 138.703125 L 102 234 L 67 234 Z M 67 138.703125 " clip-rule="nonzero"/></clipPath><clipPath id="acbd2d0525"><path d="M 314 152 L 334.410156 152 L 334.410156 213 L 314 213 Z M 314 152 " clip-rule="nonzero"/></clipPath><clipPath id="f957e39a16"><path d="M 273 138.703125 L 308 138.703125 L 308 234 L 273 234 Z M 273 138.703125 " clip-rule="nonzero"/></clipPath></defs><g clip-path="url(#7cec648ab9)"><path fill="#ff9045" d="M 47.007812 212.910156 L 60.507812 212.910156 L 60.507812 152.40625 L 47.007812 152.40625 C 40.257812 152.40625 40.257812 156.800781 40.257812 159.128906 L 40.257812 206.1875 C 40.257812 208.511719 40.257812 212.910156 47.007812 212.910156 Z M 47.007812 212.910156 " fill-opacity="1" fill-rule="nonzero"/></g><g clip-path="url(#a6269cc96b)"><path fill="#ff9045" d="M 67.257812 155.765625 L 67.257812 226.355469 C 67.257812 228.679688 67.257812 233.078125 74.007812 233.078125 L 94.796875 233.078125 C 101.007812 233.078125 101.007812 228.679688 101.007812 226.355469 L 101.007812 145.683594 C 101.007812 143.355469 101.007812 138.960938 94.796875 138.960938 L 74.007812 138.960938 C 67.257812 138.960938 67.257812 143.355469 67.257812 145.683594 Z M 67.257812 155.765625 " fill-opacity="1" fill-rule="nonzero"/></g><g clip-path="url(#acbd2d0525)"><path fill="#ff9045" d="M 314.160156 212.910156 L 327.660156 212.910156 C 334.410156 212.910156 334.410156 208.511719 334.410156 206.1875 L 334.410156 159.128906 C 334.410156 156.800781 334.410156 152.40625 327.660156 152.40625 L 314.160156 152.40625 Z M 314.160156 212.910156 " fill-opacity="1" fill-rule="nonzero"/></g><g clip-path="url(#f957e39a16)"><path fill="#ff9045" d="M 273.660156 197.785156 L 273.660156 226.355469 C 273.660156 228.679688 273.660156 233.078125 280.410156 233.078125 L 300.660156 233.078125 C 307.410156 233.078125 307.410156 228.679688 307.410156 226.355469 L 307.410156 145.683594 C 307.410156 143.355469 307.410156 138.960938 300.660156 138.960938 L 280.410156 138.960938 C 273.660156 138.960938 273.660156 143.355469 273.660156 145.683594 Z M 273.660156 197.785156 " fill-opacity="1" fill-rule="nonzero"/></g><g fill="#ff9045" fill-opacity="1"><g transform="translate(179.335334, 210.674619)"><g><path d="M 19.265625 -12.8125 L 24.796875 -12.8125 L 24.796875 -2.984375 C 23.429688 -2.023438 21.78125 -1.238281 19.84375 -0.625 C 17.914062 -0.0195312 16.078125 0.28125 14.328125 0.28125 C 10.484375 0.28125 7.273438 -0.945312 4.703125 -3.40625 C 2.140625 -5.863281 0.859375 -8.925781 0.859375 -12.59375 C 0.859375 -16.25 2.175781 -19.300781 4.8125 -21.75 C 7.457031 -24.195312 10.773438 -25.421875 14.765625 -25.421875 C 16.628906 -25.421875 18.484375 -25.082031 20.328125 -24.40625 C 22.179688 -23.738281 23.757812 -22.828125 25.0625 -21.671875 L 21.453125 -17.3125 C 20.546875 -18.15625 19.488281 -18.820312 18.28125 -19.3125 C 17.082031 -19.800781 15.894531 -20.046875 14.71875 -20.046875 C 12.65625 -20.046875 10.921875 -19.332031 9.515625 -17.90625 C 8.117188 -16.476562 7.421875 -14.707031 7.421875 -12.59375 C 7.421875 -10.457031 8.125 -8.671875 9.53125 -7.234375 C 10.945312 -5.796875 12.703125 -5.078125 14.796875 -5.078125 C 16.140625 -5.078125 17.628906 -5.484375 19.265625 -6.296875 Z M 19.265625 -12.8125 "/></g></g></g><g fill="#ff9045" fill-opacity="1"><g transform="translate(206.074612, 210.674619)"><g><path d="M 15.515625 -8.140625 L 15.515625 0 L 9.140625 0 L 9.140625 -7.953125 L -0.1875 -25.203125 L 6.234375 -25.203125 L 12.3125 -14.21875 L 18.25 -25.203125 L 24.65625 -25.203125 Z M 15.515625 -8.140625 "/></g></g></g><g fill="#ff9045" fill-opacity="1"><g transform="translate(230.546634, 210.674619)"><g><path d="M 30.203125 0 L 24.546875 0 L 24.515625 -16.375 L 18.46875 -2.515625 L 14.296875 -2.515625 L 8.25 -16.375 L 8.25 0 L 2.515625 0 L 2.515625 -25.234375 L 9.546875 -25.234375 L 16.375 -10.21875 L 23.21875 -25.234375 L 30.203125 -25.234375 Z M 30.203125 0 "/></g></g></g><g fill="#ffffff" fill-opacity="1"><g transform="translate(118.126051, 199.124987)"><g><path d="M 25.265625 0 L 25.203125 -13.359375 L 18.71875 -2.484375 L 15.546875 -2.484375 L 9.109375 -13 L 9.109375 0 L 2.515625 0 L 2.515625 -25.203125 L 8.390625 -25.203125 L 17.25 -10.65625 L 25.890625 -25.203125 L 31.75 -25.203125 L 31.828125 0 Z M 25.265625 0 "/></g></g></g><g fill="#ffffff" fill-opacity="1"><g transform="translate(152.458862, 199.124987)"><g><path d="M 16.015625 -9.03125 L 16.015625 0 L 8.890625 0 L 8.890625 -9.140625 L -0.71875 -25.203125 L 6.796875 -25.203125 L 12.78125 -15.1875 L 18.75 -25.203125 L 25.671875 -25.203125 Z M 16.015625 -9.03125 "/></g></g></g></svg>